<svg width="200" height="150" viewBox="0 0 200 150" fill="none" xmlns="http://www.w3.org/2000/svg">
  
  <defs>
    <mask id="bowlMask">
      <path fill="white" d="M100 135C125 135 150 135 175 135C175 135 195 125 195 90C195 55 180 20 100 20C20 20 5 55 5 90C5 125 25 135 25 135C50 135 75 135 100 135Z" stroke-width="2"/>
      
      <path fill="white" d="M85 135L115 135L107.5 145L92.5 145L85 135Z"/>
      
      <path fill="white" d="M100 20C100 20 180 20 180 20L170 15L100 15L30 15L20 20C20 20 100 20 100 20Z" />
    </mask>
  </defs>

  <g mask="url(#bowlMask)">
    <rect x="0" y="0" width="200" height="150" fill="#EAE0C7"/> <g fill="white" opacity="0.6">
        <rect x="0" y="30" width="200" height="2"/>
        <rect x="0" y="35" width="200" height="2"/>
        <rect x="0" y="40" width="200" height="2"/>
        <rect x="0" y="45" width="200" height="2"/>
        <rect x="0" y="50" width="200" height="2"/>
        <rect x="0" y="55" width="200" height="2"/>
        <rect x="0" y="60" width="200" height="2"/>
        <rect x="0" y="65" width="200" height="2"/>
        <rect x="0" y="70" width="200" height="2"/>
        <rect x="0" y="75" width="200" height="2"/>
        <rect x="0" y="80" width="200" height="2"/>
        <rect x="0" y="85" width="200" height="2"/>
        <rect x="0" y="90" width="200" height="2"/>
        <rect x="0" y="95" width="200" height="2"/>
        <rect x="0" y="100" width="200" height="2"/>
        <rect x="0" y="105" width="200" height="2"/>
        <rect x="0" y="110" width="200" height="2"/>
        <rect x="0" y="115" width="200" height="2"/>
        <rect x="0" y="120" width="200" height="2"/>
        <rect x="0" y="125" width="200" height="2"/>
        <rect x="0" y="130" width="200" height="2"/>
    </g>
    
  </g>
  
  <path stroke="white" stroke-width="1.5" stroke-linejoin="round" d="M100 135C125 135 150 135 175 135C175 135 195 125 195 90C195 55 180 20 100 20C20 20 5 55 5 90C5 125 25 135 25 135C50 135 75 135 100 135Z"/>
</svg>