<?xml version="1.0" encoding="utf-8"?>
<!-- Generator: Adobe Illustrator 27.5.0, SVG Export Plug-In . SVG Version: 6.00 Build 0)  -->
<svg version="1.1" xmlns="http://www.w3.org/2000/svg" xmlns:xlink="http://www.w3.org/1999/xlink" x="0px" y="0px"
	 viewBox="0 0 2200 1466" style="enable-background:new 0 0 2200 1466;" xml:space="preserve">
<g id="background">
	<rect y="0" style="fill:#FFFFFF;" width="2200" height="1466"/>
</g>
<g id="Objects">
	<g>
		<g>
			<path style="fill:#4F9E1D;" d="M585.552,574.381c-7.41,7.141-7.629,18.937-0.487,26.347
				c40.61,42.144,62.975,97.595,62.975,156.14c0,60.113-23.409,116.628-65.916,159.134c-42.507,42.507-99.022,65.916-159.135,65.916
				s-116.628-23.409-159.135-65.916c-42.506-42.506-65.916-99.021-65.916-159.134c0-60.113,23.409-116.628,65.916-159.135
				c38.526-38.526,88.561-61.364,142.351-65.304c13.9,20.759,35.772,36.196,64.253,45.226
				c68.199,21.622,99.156-43.234,138.06-30.696c-13.603-39.303-42.157-75.288-102.943-94.56
				c-47.228-14.973-83.438,2.728-107.034,22.827c47.663-5.965,119.396,11.717,175.488,52.506
				c-1.191-0.642-82.627-41.303-181.752-31.399c-58.544,5.849-112.543,32.816-154.774,75.048
				c-49.545,49.545-76.831,115.419-76.831,185.486c0,70.068,27.286,135.941,76.831,185.486
				c49.545,49.545,115.419,76.832,185.486,76.832s135.941-27.286,185.486-76.831c49.545-49.545,76.832-115.419,76.832-185.487
				c0-68.24-26.07-132.875-73.408-181.999C604.759,567.458,592.963,567.239,585.552,574.381z"/>
		</g>
	</g>
	<g>
		<g>
			<path style="fill:#4F9E1D;" d="M1257.48,543.881c-13.603-39.303-42.157-75.288-102.943-94.56
				c-47.227-14.973-83.438,2.728-107.034,22.827c47.663-5.965,119.396,11.717,175.488,52.506
				c-1.192-0.642-81.961-43.22-181.996-31.365c-41.622,4.933-81.338,19.635-116.278,43.371
				c-42.459,28.843-75.305,69.05-94.989,116.275c-3.96,9.499,0.531,20.409,10.03,24.368c2.343,0.977,4.772,1.439,7.161,1.439
				c7.297,0,14.224-4.314,17.207-11.47c16.889-40.52,45.082-75.025,81.532-99.787c32.685-22.204,70.247-35.238,109.513-38.131
				c13.9,20.756,35.771,36.192,64.25,45.221C1187.619,596.199,1218.577,531.342,1257.48,543.881z"/>
		</g>
		<g>
			<path style="fill:#4F9E1D;" d="M1100.939,977.029c-43.536,5.632-87.515-1.53-127.183-20.716
				c-35.572-17.204-65.641-43.217-87.779-75.775c11.026-22.416,13.458-49.075,7.038-78.253
				c-15.374-69.873-87.02-64.255-95.613-104.215c-27.236,31.431-44.123,74.153-30.42,136.431
				c10.646,48.387,44.082,70.895,73.286,81.281c-28.997-38.295-49.551-109.258-42.272-178.23c0.04,1.353,4.944,89.429,63.83,173.289
				c24.088,34.304,57.675,60.628,95.704,79.021c35.965,17.394,74.979,26.304,114.433,26.304c11.237,0,22.511-0.723,33.759-2.179
				c10.206-1.32,17.408-10.665,16.088-20.87C1120.489,982.911,1111.142,975.705,1100.939,977.029z"/>
		</g>
		<g>
			<path style="fill:#4F9E1D;" d="M1313.032,857.222c18.224-37.741,23.661-80.253,20.575-122.378
				c-3.75-51.192-22.146-99.741-53.203-140.4c-6.246-8.179-17.94-9.743-26.118-3.497c-8.178,6.247-9.744,17.94-3.497,26.119
				c26.646,34.886,42.432,76.555,45.651,120.501c2.886,39.408-4.607,78.455-21.735,113.907
				c-24.925,1.66-49.229,12.883-71.287,33.031c-52.825,48.251-12.136,107.489-42.446,134.911
				c40.839,7.871,86.28,1.135,133.363-41.871c36.581-33.414,39.356-73.624,33.748-104.108
				c-18.665,44.26-69.845,97.541-133.216,125.724C1196.02,998.449,1266.891,952.78,1313.032,857.222z"/>
		</g>
	</g>
	<g>
		<g>
			<path style="fill:#4F9E1D;" d="M1811.86,428.532c-47.227-14.973-83.438,2.728-107.034,22.827
				c47.663-5.965,119.396,11.717,175.488,52.506c-1.192-0.642-69.049-36.648-181.96-31.37
				c-42.002,1.964-81.587,19.715-116.612,43.579c-8.505,5.794-10.702,17.386-4.907,25.891c3.607,5.294,9.458,8.143,15.415,8.143
				c3.613,0,7.265-1.049,10.475-3.236c32.747-22.311,70.398-35.405,109.769-38.305c13.9,20.756,35.771,36.192,64.25,45.221
				c68.198,21.622,99.156-43.234,138.059-30.696C1901.201,483.789,1872.646,447.804,1811.86,428.532z"/>
		</g>
		<g>
			<path style="fill:#4F9E1D;" d="M1543.147,859.549c-22.311-32.747-35.405-70.398-38.304-109.769
				c20.756-13.9,36.192-35.771,45.22-64.249c21.622-68.199-43.234-99.156-30.696-138.06c-39.303,13.602-75.288,42.157-94.56,102.943
				c-14.973,47.228,2.729,83.438,22.827,107.034c-5.965-47.663,11.717-119.396,52.506-175.488
				c-0.642,1.191-39.119,75.993-31.371,181.95c3.067,41.939,19.715,81.594,43.579,116.622c3.608,5.295,9.459,8.144,15.416,8.144
				c3.613,0,7.264-1.049,10.475-3.236C1546.743,879.646,1548.941,868.054,1543.147,859.549z"/>
		</g>
		<g>
			<path style="fill:#4F9E1D;" d="M1855.824,919.129c-32.747,22.31-70.397,35.404-109.769,38.304
				c-13.9-20.756-35.771-36.192-64.249-45.221c-68.199-21.622-99.156,43.234-138.06,30.696
				c13.603,39.303,42.157,75.288,102.943,94.56c47.227,14.973,83.438-2.728,107.034-22.827
				c-47.663,5.965-119.395-11.717-175.488-52.506c1.191,0.642,74.429,38.58,181.944,31.372
				c41.96-2.813,81.599-19.714,116.628-43.581c8.505-5.794,10.702-17.386,4.907-25.89
				C1875.921,915.531,1864.328,913.334,1855.824,919.129z"/>
		</g>
		<g>
			<path style="fill:#4F9E1D;" d="M2010.916,708.552c5.965,47.663-11.717,119.396-52.506,175.488
				c0.642-1.191,37.034-70.097,31.37-181.955c-2.126-41.997-19.715-81.592-43.58-116.618c-5.794-8.504-17.386-10.701-25.89-4.907
				c-8.505,5.795-10.702,17.386-4.907,25.891c22.311,32.746,35.404,70.396,38.304,109.769c-20.756,13.9-36.192,35.771-45.22,64.249
				c-21.622,68.199,43.234,99.156,30.696,138.06c39.303-13.603,75.288-42.157,94.56-102.943
				C2048.717,768.358,2031.015,732.147,2010.916,708.552z"/>
		</g>
	</g>
</g>
</svg>
